<svg width="16" height="16" viewBox="0 0 16 16" fill="none" xmlns="http://www.w3.org/2000/svg">
<path d="M11 0.000610352V1.00061H10V0.000610352H11Z" fill="white"/>
<path d="M10 1.00061V2.00061H9V1.00061H10Z" fill="white"/>
<path d="M14 2.00061V3.00061H13V2.00061H14Z" fill="white"/>
<path d="M13 3.00061V4.00061H12V3.00061H13Z" fill="white"/>
<path d="M15 7.00061V6.00061H16V5.00061H15V6.00061H14V7.00061H15Z" fill="white"/>
<path d="M3 4.00061V3.00061H4V4.00061H3Z" fill="white"/>
<path d="M2 2.00061V3.00061H3V2.00061H2Z" fill="white"/>
<path d="M6 2.00061V1.00061H7V2.00061H6Z" fill="white"/>
<path d="M5 0.000610352V1.00061H6V0.000610352H5Z" fill="white"/>
<path d="M13 12.0006V13.0006H12V12.0006H13Z" fill="white"/>
<path d="M13 13.0006H14V14.0006H13V13.0006Z" fill="white"/>
<path d="M3 12.0006V13.0006H2V14.0006H3V13.0006H4V12.0006H3Z" fill="white"/>
<path d="M1 11.0006V10.0006H2V9.00061H1V10.0006H0V11.0006H1Z" fill="white"/>
<path d="M15 11.0006V10.0006H16V11.0006H15Z" fill="white"/>
<path d="M15 10.0006H14V9.00061H15V10.0006Z" fill="white"/>
<path d="M10 14.0006V15.0006H9V14.0006H10Z" fill="white"/>
<path d="M10 15.0006H11V16.0006H10V15.0006Z" fill="white"/>
<path d="M6 14.0006V15.0006H5V16.0006H6V15.0006H7V14.0006H6Z" fill="white"/>
<path d="M1 5.00061V6.00061H0V5.00061H1Z" fill="white"/>
<path d="M2 7.00061V6.00061H1V7.00061H2Z" fill="white"/>
<path d="M6 3.00061H10V4.00061H6V3.00061Z" fill="white"/>
<path d="M5 5.00061V4.00061H6V5.00061H5Z" fill="white"/>
<path d="M4 6.00061V5.00061H5V6.00061H4Z" fill="white"/>
<path d="M4 6.00061H3V10.0006H4V11.0006H5V12.0006H6V13.0006H10V12.0006H11V11.0006H12V10.0006H13V6.00061H12V5.00061H11V4.00061H10V5.00061H11V6.00061H12V10.0006H11V11.0006H10V12.0006H6V11.0006H5V10.0006H4V6.00061Z" fill="black"/>
</svg>
