<svg width="96" height="96" viewBox="0 0 96 96" fill="none" xmlns="http://www.w3.org/2000/svg">
<g clip-path="url(#clip0_4_2)">
<path d="M87.8347 41.736C87.6441 41.2264 87.3024 40.7871 86.8555 40.4769C86.4085 40.1667 85.8774 40.0003 85.3333 40H53.1333L71.7067 3.88801C71.917 3.48139 72.019 3.02742 72.0028 2.5699C71.9867 2.11238 71.8529 1.66675 71.6143 1.27599C71.3758 0.885236 71.0406 0.562543 70.6411 0.339043C70.2415 0.115542 69.7911 -0.00122367 69.3333 9.66988e-06C68.694 0.000274988 68.076 0.230244 67.592 0.64801L48 17.568L8.92533 51.3147C8.51354 51.6701 8.2203 52.143 8.08496 52.6699C7.94962 53.1968 7.97865 53.7524 8.16816 54.2623C8.35767 54.7722 8.69859 55.212 9.14519 55.5226C9.59178 55.8332 10.1227 55.9998 10.6667 56H42.8667L24.2933 92.112C24.083 92.5186 23.981 92.9726 23.9972 93.4301C24.0133 93.8876 24.1471 94.3333 24.3857 94.724C24.6242 95.1148 24.9594 95.4375 25.3589 95.661C25.7585 95.8845 26.2089 96.0012 26.6667 96C27.306 95.9997 27.924 95.7698 28.408 95.352L48 78.432L87.0747 44.6853C87.4873 44.3301 87.7813 43.8571 87.9171 43.3298C88.053 42.8026 88.0242 42.2464 87.8347 41.736Z" fill="#FFAC33"/>
</g>
<defs>
<clipPath id="clip0_4_2">
<rect width="96" height="96" fill="white"/>
</clipPath>
</defs>
</svg>
